<?xml version="1.0" encoding="UTF-8" standalone="no"?>
<!-- Passed misc2svg (http://www.network-science.de/tools/misc2svg/) -->

<svg
   xmlns:dc="http://purl.org/dc/elements/1.1/"
   xmlns:cc="http://creativecommons.org/ns#"
   xmlns:rdf="http://www.w3.org/1999/02/22-rdf-syntax-ns#"
   xmlns:svg="http://www.w3.org/2000/svg"
   xmlns="http://www.w3.org/2000/svg"
   xmlns:xlink="http://www.w3.org/1999/xlink"
   xmlns:sodipodi="http://sodipodi.sourceforge.net/DTD/sodipodi-0.dtd"
   xmlns:inkscape="http://www.inkscape.org/namespaces/inkscape"
   version="1.1"
   id="svg11301"
   x="0px"
   y="0px"
   width="200"
   height="200"
   viewBox="0 0 200.00001 200"
   enable-background="new 0 0 400.003 199.998"
   xml:space="preserve"
   inkscape:version="0.91 r"
   sodipodi:docname="Australian_Labor_Party_Logo.svg"><metadata
     id="metadata60"><rdf:RDF><cc:Work
         rdf:about=""><dc:format>image/svg+xml</dc:format><dc:type
           rdf:resource="http://purl.org/dc/dcmitype/StillImage" /><dc:title></dc:title></cc:Work></rdf:RDF></metadata><defs
     id="defs58" /><sodipodi:namedview
     pagecolor="#ffffff"
     bordercolor="#666666"
     borderopacity="1"
     objecttolerance="10"
     gridtolerance="10"
     guidetolerance="10"
     inkscape:pageopacity="0"
     inkscape:pageshadow="2"
     inkscape:window-width="996"
     inkscape:window-height="818"
     id="namedview56"
     showgrid="false"
     inkscape:zoom="1.5399885"
     inkscape:cx="92.901419"
     inkscape:cy="165.58965"
     inkscape:window-x="904"
     inkscape:window-y="417"
     inkscape:window-maximized="0"
     inkscape:current-layer="svg11301" /><g
     id="g3470"
     transform="translate(-199.35214,0.0019978)"><path
       id="path278"
       d="m 400.00052,0.0019989 -200,0 0,200.0000011 200,0 0,-200.0000011 z"
       inkscape:connector-curvature="0"
       style="fill:#bf2519" /><path
       style="fill:#ffffff"
       inkscape:connector-curvature="0"
       d="m 213.46381,182.31483 0,-49.93481 11.24591,0 0,40.59696 23.62379,0 0,9.33785 -34.8697,0 z"
       id="path282" /><g
       transform="matrix(3.0676258,0,0,-3.0676258,-82.60503,826.08403)"
       id="g21"><defs
         id="defs23"><rect
           height="399.99899"
           width="200.00301"
           y="69.292"
           x="24.722"
           id="SVGID_1_" /></defs><clipPath
         id="SVGID_2_"><use
           height="100%"
           width="100%"
           y="0"
           x="0"
           style="overflow:visible"
           id="use27"
           overflow="visible"
           xlink:href="#SVGID_1_" /></clipPath><g
         clip-path="url(#SVGID_2_)"
         id="g286"><g
           transform="translate(51.303,150.3804)"
           id="g292"><path
             style="fill:#ffffff"
             inkscape:connector-curvature="0"
             d="m 65.197,65.197 c -0.277,-0.114 -0.553,-0.208 -0.83,-0.276 -1.083,-0.277 -3.551,-0.3 -3.551,-1.845 0,-0.899 0.807,-1.268 1.591,-1.268 1.13,0 2.213,0.553 2.79,1.545 l 0,1.844 z m 0.254,-5.718 -0.162,1.085 c -1.315,-0.924 -2.051,-1.43 -3.759,-1.43 -2.305,0 -4.15,1.43 -4.15,3.85 0,3.389 3.298,3.689 5.88,4.058 0.6,0.092 1.845,0.138 1.845,0.991 0,0.922 -1.107,1.107 -1.821,1.107 -0.946,0 -2.145,-0.323 -2.099,-1.499 l -3.136,0 c 0.161,2.974 2.398,4.127 5.096,4.127 1.982,0 4.219,-0.323 5.095,-2.398 0.369,-0.899 0.323,-2.282 0.323,-3.25 l 0,-4.012 c 0,-0.623 0.023,-2.145 0.461,-2.629 l -3.573,0 z"
             id="path294" /></g><g
           transform="translate(61.5857,154.1387)"
           id="g296"><path
             style="fill:#ffffff"
             inkscape:connector-curvature="0"
             d="m 65.197,65.196 c -1.983,0 -2.514,-1.775 -2.514,-3.435 0,-1.661 0.416,-3.552 2.444,-3.552 1.96,0 2.375,2.145 2.375,3.691 0,1.498 -0.485,3.296 -2.305,3.296 m 0.691,-9.821 c -1.383,0 -2.328,0.577 -3.251,1.568 l 0.069,-1.223 -3.366,0 0,16.278 3.366,0 0,-5.21 c 0.83,0.853 1.983,1.2 3.16,1.2 3.527,0 5.049,-2.953 5.049,-6.087 0,-3.206 -1.361,-6.526 -5.027,-6.526"
             id="path298" /></g><g
           transform="translate(74.2664,154.2307)"
           id="g300"><path
             style="fill:#ffffff"
             inkscape:connector-curvature="0"
             d="m 65.197,65.196 c -2.051,0 -2.743,-1.752 -2.743,-3.527 0,-1.73 0.646,-3.62 2.697,-3.62 2.098,0 2.698,1.959 2.698,3.735 0,1.706 -0.646,3.412 -2.652,3.412 m -0.16,-9.913 c -3.736,0 -6.065,2.582 -6.065,6.249 0,3.873 2.514,6.386 6.387,6.386 3.666,0 5.972,-2.697 5.972,-6.271 0,-3.689 -2.583,-6.364 -6.294,-6.364"
             id="path302" /></g><g
           transform="translate(87.3858,153.7696)"
           id="g304"><path
             style="fill:#ffffff"
             inkscape:connector-curvature="0"
             d="m 65.197,65.197 c -2.375,0 -2.651,-1.452 -2.697,-3.389 -0.024,-0.599 -0.024,-1.222 -0.024,-1.822 l 0,-3.896 -3.481,0 0,11.944 3.32,0 0,-1.961 c 0.576,1.5 1.476,2.191 3.09,2.191 0.207,0 0.391,-0.023 0.599,-0.046 l 0,-3.089 c -0.277,0.046 -0.531,0.068 -0.807,0.068"
             id="path306" /></g><g
           transform="translate(64.4032,163.7807)"
           id="g308"><path
             style="fill:#ffffff"
             inkscape:connector-curvature="0"
             d="m 65.197,65.196 -0.956,-2.672 1.913,0 -0.957,2.672 z m 1.578,-4.387 -0.529,1.471 -2.091,0 -0.529,-1.471 -0.29,0 1.69,4.658 0.342,0 1.696,-4.658 -0.289,0 z"
             id="path310" /></g><g
           transform="translate(69.0941,159.3926)"
           id="g312"><path
             style="fill:#ffffff"
             inkscape:connector-curvature="0"
             d="m 65.197,65.196 0,0.633 c -0.184,-0.468 -0.632,-0.706 -1.121,-0.706 -0.218,0 -0.476,0.046 -0.66,0.179 -0.35,0.25 -0.416,0.6 -0.416,1.002 l 0,2.31 0.258,0 0,-2.35 c 0,-0.566 0.244,-0.91 0.851,-0.91 0.244,0 0.488,0.079 0.673,0.237 0.389,0.343 0.415,0.779 0.415,1.26 l 0,1.763 0.251,0 0,-3.418 -0.251,0 z"
             id="path314" /></g><g
           transform="translate(71.3317,159.3132)"
           id="g316"><path
             style="fill:#ffffff"
             inkscape:connector-curvature="0"
             d="m 65.197,65.197 c -0.739,0 -1.114,0.363 -1.234,1.068 l 0.278,0.048 c 0.012,-0.087 0.026,-0.172 0.046,-0.258 0.125,-0.455 0.488,-0.614 0.937,-0.614 0.475,0 0.884,0.218 0.884,0.739 0,0.429 -0.283,0.548 -0.64,0.666 -0.555,0.186 -1.293,0.278 -1.293,1.024 0,0.6 0.508,0.904 1.061,0.904 0.429,0 0.833,-0.159 1.004,-0.581 0.04,-0.106 0.06,-0.211 0.079,-0.323 l -0.264,-0.047 c -0.046,0.501 -0.336,0.713 -0.825,0.713 -0.429,0 -0.793,-0.197 -0.793,-0.666 l 0,-0.013 c 0,-0.357 0.199,-0.463 0.51,-0.581 0.309,-0.119 0.732,-0.178 1.01,-0.35 0.277,-0.172 0.422,-0.415 0.422,-0.739 0,-0.673 -0.568,-0.99 -1.182,-0.99"
             id="path318" /></g><g
           transform="translate(73.9855,159.3531)"
           id="g320"><path
             style="fill:#ffffff"
             inkscape:connector-curvature="0"
             d="m 65.197,65.196 c -0.456,0 -0.594,0.317 -0.594,0.712 l 0,2.515 -0.449,0 0,0.231 0.449,0 0,0.772 0.257,0 0,-0.772 0.587,0 0,-0.239 -0.587,0 0,-2.507 c 0,-0.251 0.066,-0.462 0.356,-0.462 0.079,0 0.158,0.006 0.238,0.014 l 0,-0.245 c -0.08,-0.019 -0.178,-0.019 -0.257,-0.019"
             id="path322" /></g><g
           transform="translate(75.1328,161.2474)"
           id="g324"><path
             style="fill:#ffffff"
             inkscape:connector-curvature="0"
             d="m 65.197,65.197 0,-1.855 -0.257,0 0,3.418 0.257,0 0,-0.62 c 0.165,0.489 0.535,0.68 1.037,0.68 l 0,-0.264 c -0.879,0 -1.037,-0.62 -1.037,-1.359"
             id="path326" /></g><g
           transform="translate(78.7224,161.3125)"
           id="g328"><path
             style="fill:#ffffff"
             inkscape:connector-curvature="0"
             d="m 65.197,65.197 c -0.409,-0.132 -0.837,-0.192 -1.254,-0.284 -0.139,-0.027 -0.277,-0.059 -0.401,-0.125 -0.224,-0.126 -0.344,-0.329 -0.344,-0.587 0,-0.515 0.363,-0.759 0.851,-0.759 0.706,0 1.148,0.462 1.148,1.155 l 0,0.6 z m 0.416,-1.92 c -0.27,0 -0.408,0.085 -0.408,0.383 0,0.078 0.006,0.158 0.012,0.238 -0.231,-0.47 -0.68,-0.694 -1.187,-0.694 -0.601,0 -1.096,0.344 -1.096,0.983 0,0.978 1.082,0.95 1.775,1.095 0.086,0.02 0.377,0.08 0.429,0.152 0.046,0.06 0.059,0.127 0.059,0.198 l 0,0.231 c 0,0.502 -0.455,0.686 -0.883,0.686 -0.568,0 -0.945,-0.217 -0.991,-0.804 L 63.06,65.75 c 0.072,0.741 0.534,1.031 1.254,1.031 0.645,0 1.134,-0.258 1.134,-0.97 l 0,-1.986 c 0,-0.179 0,-0.317 0.224,-0.317 l 0.126,0 0,-0.231 -0.185,0 z"
             id="path330" /></g><path
           style="fill:#ffffff"
           inkscape:connector-curvature="0"
           d="m 145.161,229.247 0.256,0 0,-4.658 -0.256,0 0,4.658 z"
           id="path332" /><path
           style="fill:#ffffff"
           inkscape:connector-curvature="0"
           d="m 146.395,228.007 0.258,0 0,-3.418 -0.258,0 0,3.418 z m -0.015,1.24 0.291,0 0,-0.488 -0.291,0 0,0.488 z"
           id="path334" /><g
           transform="translate(84.4905,161.3125)"
           id="g336"><path
             style="fill:#ffffff"
             inkscape:connector-curvature="0"
             d="m 65.197,65.197 c -0.409,-0.132 -0.838,-0.192 -1.254,-0.284 -0.139,-0.027 -0.277,-0.059 -0.403,-0.125 -0.224,-0.126 -0.342,-0.329 -0.342,-0.587 0,-0.515 0.363,-0.759 0.852,-0.759 0.705,0 1.147,0.462 1.147,1.155 l 0,0.6 z m 0.415,-1.92 c -0.269,0 -0.408,0.085 -0.408,0.383 0,0.078 0.006,0.158 0.012,0.238 -0.23,-0.47 -0.679,-0.694 -1.188,-0.694 -0.6,0 -1.095,0.344 -1.095,0.983 0,0.978 1.082,0.95 1.776,1.095 0.085,0.02 0.376,0.08 0.428,0.152 0.047,0.06 0.06,0.127 0.06,0.198 l 0,0.231 c 0,0.502 -0.456,0.686 -0.884,0.686 -0.568,0 -0.944,-0.217 -0.99,-0.804 l -0.264,0.005 c 0.072,0.741 0.535,1.031 1.254,1.031 0.647,0 1.135,-0.258 1.135,-0.97 l 0,-1.986 c 0,-0.179 0,-0.317 0.224,-0.317 l 0.125,0 0,-0.231 -0.185,0 z"
             id="path338" /></g><g
           transform="translate(87.9285,159.3926)"
           id="g340"><path
             style="fill:#ffffff"
             inkscape:connector-curvature="0"
             d="m 65.197,65.196 0,2.304 c 0,0.594 -0.224,0.949 -0.864,0.949 -0.205,0 -0.403,-0.052 -0.575,-0.165 -0.429,-0.276 -0.5,-0.691 -0.5,-1.16 l 0,-1.927 -0.259,0 0,3.418 0.251,0 0,-0.594 c 0.218,0.447 0.64,0.667 1.128,0.667 0.496,0 0.906,-0.22 1.037,-0.72 0.046,-0.19 0.046,-0.395 0.046,-0.594 l 0,-2.177 -0.264,0 z"
             id="path342" /></g></g></g></g></svg>