<?xml version="1.0" encoding="utf-8"?>
<!-- Generator: Adobe Illustrator 16.0.4, SVG Export Plug-In . SVG Version: 6.00 Build 0)  -->
<!DOCTYPE svg PUBLIC "-//W3C//DTD SVG 1.1//EN" "http://www.w3.org/Graphics/SVG/1.1/DTD/svg11.dtd">
<svg version="1.1" id="Layer_1" xmlns="http://www.w3.org/2000/svg" xmlns:xlink="http://www.w3.org/1999/xlink" x="0px" y="0px"
	 width="564.1px" height="488.98px" viewBox="0 0 564.1 488.98" enable-background="new 0 0 564.1 488.98" xml:space="preserve">
<polygon fill="#009C3D" points="282.05,0 564.1,488.98 0,488.98 "/>
<g>
	<path fill="#FFFFFF" d="M249.53,206.761v19.6h-16.52v85.96h-20.86v-85.96h-16.38v-19.6H249.53L249.53,206.761z"/>
	<path fill="#FFFFFF" d="M273.025,206.761v41.3h21.14v-41.3h20.859v105.56h-20.859v-44.66h-21.14v44.66h-20.86v-105.56H273.025z"/>
	<path fill="#FFFFFF" d="M364.996,206.761v19.6h-21.142v22.96h18.621v19.6h-18.621v23.801h21.42v19.601h-42.278v-105.56
		L364.996,206.761L364.996,206.761z"/>
</g>
<g>
	<path fill="#FFFFFF" d="M168.68,382.521v8.26c0,22.4-5.46,52.221-33.88,52.221c-28.42,0-37.66-30.521-37.66-53.899
		c0-24.36,7.84-55.021,37.66-55.021c16.1,0,26.6,10.08,31.08,25.061l-20.3,7.84c-0.98-5.319-2.66-13.58-10.64-13.58
		c-14.14-0.84-15.54,25.2-15.54,35.141c0,10.921,0.7,35.141,16.1,35.141c10.64,0,12.32-14.28,12.32-21.562h-13.3v-19.6
		L168.68,382.521L168.68,382.521z"/>
	<path fill="#FFFFFF" d="M172.879,441.32V335.76h21c13.3,0,37.1,1.399,37.1,30.239c0,11.619-4.62,21.561-14.979,27.3l18.34,48.021
		h-21.98l-18.34-48.721h-0.28v48.721H172.879z M193.739,381.12l3.64,0.142c9.52,0,13.3-6.44,13.3-15.12
		c0-7.561-3.64-13.721-14.14-13.16h-2.8V381.12z"/>
	<path fill="#FFFFFF" d="M282.189,335.761v19.6h-21.14v22.96h18.62v19.601h-18.62v23.8h21.42v19.601h-42.28v-105.56L282.189,335.761
		L282.189,335.761z"/>
	<path fill="#FFFFFF" d="M330.188,335.761v19.6h-21.14v22.96h18.619v19.601h-18.619v23.8h21.42v19.601h-42.28v-105.56
		L330.188,335.761L330.188,335.761z"/>
	<path fill="#FFFFFF" d="M356.207,335.761l26.04,63.7l0.279-0.28c-1.26-5.04-1.68-10.5-1.68-15.961v-47.459h20.859v105.56h-19.74
		l-25.76-63.7l-0.279,0.28l0.979,10.64l0.14,4.342v48.438h-20.859v-105.56H356.207z"/>
	<path fill="#FFFFFF" d="M452.947,359.561c-4.199-3.641-9.38-6.72-15.119-6.72c-6.44,0-10.5,3.92-10.5,10.359
		c0,17.359,31.779,18.339,31.779,46.898c0,18.761-10.779,32.899-30.381,32.899c-5.88,0-13.159-1.819-17.919-5.319v-19.879
		c4.898,3.359,9.659,5.601,15.819,5.601c6.72,0,12.04-4.479,12.04-11.479c0-8.12-6.44-11.2-12.32-15.399
		c-12.039-8.12-19.459-15.96-19.459-31.359c0-16.66,9.658-31.079,27.579-31.079c6.72,0,12.739,1.818,18.479,5.18L452.947,359.561
		L452.947,359.561z"/>
</g>
<path fill="#FFFFFF" d="M12.759,481.891L278.585,21.588l3.465-5.998L551.34,481.89L12.759,481.891L12.759,481.891z M26.618,473.889
	h510.859L282.05,31.59L26.618,473.889L26.618,473.889z"/>
</svg>
